<?xml version="1.0" encoding="UTF-8" standalone="no"?>
<!DOCTYPE svg PUBLIC "-//W3C//DTD SVG 1.1//EN" "http://www.w3.org/Graphics/SVG/1.1/DTD/svg11.dtd">
<!-- Created with Vectornator (http://vectornator.io/) -->
<svg height="100%" stroke-miterlimit="10" style="fill-rule:nonzero;clip-rule:evenodd;stroke-linecap:round;stroke-linejoin:round;" version="1.1" viewBox="0 0 1024 1024" width="100%" xml:space="preserve" xmlns="http://www.w3.org/2000/svg" xmlns:vectornator="http://vectornator.io" xmlns:xlink="http://www.w3.org/1999/xlink">
<defs/>
<g id="Ebene-2" vectornator:layerName="Ebene 2">
<g opacity="1" vectornator:layerName="Oval 1">
<path d="M209.356 381.224C209.356 341.752 241.22 309.754 280.526 309.754C319.832 309.754 351.696 341.752 351.696 381.224C351.696 420.696 319.832 452.695 280.526 452.695C241.22 452.695 209.356 420.696 209.356 381.224Z" fill="#dceafe" fill-rule="nonzero" stroke="none"/>
<path d="M281.75 303.688C279.576 303.654 277.416 303.726 275.25 303.875C265.901 304.519 256.658 306.869 248.156 310.812C228.464 319.948 213.198 337.456 206.781 358.188C205.258 363.108 204.236 368.188 203.719 373.312C203.543 375.059 203.433 376.808 203.375 378.562C203.371 378.693 203.345 379.237 203.344 379.312C203.138 379.955 202.989 380.601 203 381.312C203.552 390.455 203.175 387.43 203.531 390.469C204.134 395.601 205.269 400.652 206.875 405.562C214.32 428.323 232.434 446.873 255.062 454.75C263.231 457.594 271.883 459.037 280.531 459.031C289.178 459.025 297.805 457.571 305.969 454.719C331.614 445.757 350.957 423.485 356.344 396.875C358.083 388.285 358.366 379.372 357.188 370.688C354.127 348.143 340.914 327.672 321.688 315.531C315.32 311.51 308.321 308.441 301.062 306.438C294.783 304.704 288.271 303.787 281.75 303.688ZM278.281 315.875C286.285 315.614 294.345 316.791 301.906 319.438C321.934 326.449 337.607 343.422 343.188 363.875C350.318 390.01 340.445 418.209 318.5 434.094C313.409 437.779 307.751 440.719 301.812 442.781C294.613 445.281 287.021 446.47 279.406 446.344C271.85 446.218 264.3 444.763 257.25 442.031C238.897 434.921 224.44 419.394 218.625 400.594C217.347 396.462 216.496 392.21 216.062 387.906C215.915 386.438 215.798 384.943 215.75 383.469C215.738 383.096 215.754 383.473 215.719 381.125C215.712 380.692 215.558 380.314 215.469 379.906C215.664 376.081 215.598 375.54 215.844 373.438C216.349 369.123 217.307 364.847 218.656 360.719C227.091 334.91 251.113 316.762 278.281 315.875Z" fill="#5e5e5e" stroke="none"/>
</g>
<g opacity="1" vectornator:layerName="Oval 2">
<path d="M413.921 339.407C413.921 276.839 464.242 226.118 526.315 226.118C588.389 226.118 638.709 276.839 638.709 339.407C638.709 401.974 588.389 452.695 526.315 452.695C464.242 452.695 413.921 401.974 413.921 339.407Z" fill="#dceafe" fill-rule="nonzero" stroke="none"/>
<path d="M522.219 220.125C518.876 220.241 515.54 220.478 512.219 220.875C498.657 222.497 485.404 226.52 473.219 232.688C444.002 247.476 421.796 274.383 412.656 305.812C410.624 312.802 409.229 319.977 408.5 327.219C408.297 329.233 408.133 331.259 408.031 333.281C407.983 334.241 407.944 335.734 407.906 337.562C407.719 338.171 407.557 338.799 407.562 339.469C408.395 353.644 407.823 348.933 408.375 353.625C409.225 360.856 410.758 368.012 412.906 374.969C425.406 415.45 459.053 446.936 500.469 456.188C512.251 458.819 524.409 459.629 536.438 458.594C547.561 457.636 558.561 455.104 568.969 451.062C596.439 440.395 619.304 419.313 632.406 392.938C638.227 381.221 642.106 368.592 643.844 355.625C645.723 341.599 645.146 327.224 642.094 313.406C634.705 279.957 612.876 250.867 582.812 234.438C573.184 229.176 562.835 225.265 552.125 222.875C542.329 220.689 532.247 219.778 522.219 220.125ZM524.625 232.219C527.616 232.172 530.608 232.234 533.594 232.438C543.578 233.119 553.458 235.245 562.844 238.719C599.12 252.143 625.525 284.886 631.281 323.094C633.263 336.246 632.838 349.762 629.969 362.75C623.496 392.045 604.472 417.844 578.375 432.656C569.851 437.494 560.654 441.14 551.125 443.438C539.491 446.243 527.371 447.033 515.469 445.812C503.295 444.564 491.382 441.161 480.375 435.812C453.455 422.731 432.914 398.258 424.562 369.531C422.741 363.267 421.496 356.834 420.844 350.344C420.662 348.536 420.528 346.721 420.438 344.906C420.376 343.686 420.419 344.904 420.281 339.344C420.278 338.92 420.113 338.556 420.031 338.156C420.495 329.526 420.244 330.406 420.688 326.625C421.517 319.561 423.074 312.573 425.281 305.812C436.286 272.102 463.837 245.464 498.062 236C506.717 233.607 515.653 232.359 524.625 232.219Z" fill="#5e5e5e" stroke="none"/>
</g>
<g opacity="1" vectornator:layerName="Rechteck 1">
<path d="M179.022 568.494C179.022 530.575 209.761 499.835 247.681 499.835L580.162 499.835C618.081 499.835 648.821 530.575 648.821 568.494L648.821 729.223C648.821 767.142 618.081 797.882 580.162 797.882L247.681 797.882C209.761 797.882 179.022 767.142 179.022 729.223L179.022 568.494Z" fill="#dceafe" fill-rule="nonzero" stroke="none"/>
<path d="M495.75 493.75C429.946 493.763 364.147 493.778 298.344 493.781C286.222 493.782 274.09 493.781 261.969 493.781C258.505 493.781 255.026 493.781 251.562 493.781C246.867 493.781 242.225 493.839 237.562 494.469C226.269 495.995 215.347 500.184 205.906 506.562C191.236 516.474 180.361 531.55 175.656 548.625C174.555 552.623 173.794 556.749 173.375 560.875C173.204 562.558 173.087 564.246 173.031 565.938C173.027 566.062 173.033 566.584 173.031 566.656C172.851 567.246 172.656 567.851 172.656 568.5C172.657 577.29 172.656 574.356 172.656 577.281C172.657 581.885 172.656 586.49 172.656 591.094C172.658 604.906 172.655 618.719 172.656 632.531C172.659 655.134 172.654 677.741 172.656 700.344C172.657 707.878 172.656 715.403 172.656 722.938C172.657 729.291 172.647 735.59 173.719 741.875C177.413 763.536 190.849 782.907 209.812 794C217.573 798.539 226.168 801.646 235.031 803.156C242.237 804.384 249.501 804.219 256.781 804.219C265.44 804.218 274.092 804.22 282.75 804.219C324.743 804.215 366.726 804.201 408.719 804.188C449.846 804.175 490.967 804.173 532.094 804.156C544.215 804.151 556.347 804.13 568.469 804.125C574.061 804.123 579.699 804.351 585.281 803.969C589.45 803.683 593.624 803.035 597.688 802.062C625.731 795.348 647.733 772.56 653.5 744.312C655.368 735.161 655.035 725.937 655.031 716.656C655.026 704.518 655.005 692.388 655 680.25C654.988 652.625 654.98 625 654.969 597.375C654.966 590.259 654.972 583.147 654.969 576.031C654.966 570.125 655.076 564.212 654.281 558.344C651.665 539.027 641.284 521.227 625.875 509.312C615.584 501.356 603.175 496.143 590.281 494.406C585.185 493.72 580.1 493.748 574.969 493.75C569.341 493.752 563.722 493.749 558.094 493.75C537.314 493.755 516.53 493.746 495.75 493.75ZM258.062 505.875C265.422 505.875 272.797 505.875 280.156 505.875C301.802 505.876 323.448 505.871 345.094 505.875C410.031 505.887 474.969 505.892 539.906 505.906C549.863 505.909 559.824 505.933 569.781 505.938C577.488 505.941 585.188 505.662 592.781 507.219C604.371 509.595 615.173 515.32 623.656 523.562C627.497 527.294 630.877 531.484 633.656 536.062C636.996 541.564 639.475 547.612 640.969 553.875C641.779 557.27 642.296 560.736 642.531 564.219C642.712 566.898 642.689 569.566 642.688 572.25C642.686 575.18 642.689 578.133 642.688 581.062C642.683 592.364 642.661 603.667 642.656 614.969C642.644 643.85 642.637 672.713 642.625 701.594C642.622 708.709 642.628 715.822 642.625 722.938C642.623 728.578 642.673 734.201 641.719 739.781C638.638 757.806 627.44 773.9 611.656 783.125C603.991 787.605 595.397 790.42 586.562 791.312C580.577 791.917 574.476 791.627 568.469 791.625C558.512 791.621 548.551 791.629 538.594 791.625C489.241 791.605 439.884 791.578 390.531 791.562C352.002 791.55 313.498 791.535 274.969 791.531C268.042 791.531 261.114 791.532 254.188 791.531C248.483 791.531 242.8 791.619 237.156 790.656C226.497 788.838 216.4 784.195 208.062 777.312C196.077 767.419 188.018 753.102 185.938 737.688C185.277 732.791 185.374 727.866 185.375 722.938C185.376 717.496 185.374 712.066 185.375 706.625C185.378 674.814 185.372 642.998 185.375 611.188C185.376 601.561 185.405 591.939 185.406 582.312C185.407 579.383 185.406 576.461 185.406 573.531C185.406 572.694 185.406 571.837 185.406 571C185.406 570.581 185.406 571.011 185.406 568.5C185.406 568.039 185.249 567.621 185.156 567.188C185.335 563.65 185.264 563.041 185.5 561.031C185.985 556.903 186.892 552.824 188.188 548.875C196.314 524.104 219.478 506.769 245.531 505.906C249.708 505.768 253.883 505.875 258.062 505.875Z" fill="#5e5e5e" stroke="none"/>
</g>
<g opacity="1" vectornator:layerName="Linie 1">
<path d="M695.73 601.377L695.971 692.924L844.978 772.994L844.062 522.782L696.415 601.646" fill="#dceafe" fill-rule="nonzero" stroke="none"/>
<path d="M844.844 516.781C844.012 516.643 843.129 516.669 842.281 516.844C840.889 517.13 838.815 518.396 837.625 519.031C836.856 519.442 836.082 519.871 835.312 520.281C834.159 520.897 832.997 521.509 831.844 522.125C830.69 522.741 829.529 523.353 828.375 523.969C826.837 524.79 825.319 525.616 823.781 526.438C821.859 527.464 819.923 528.473 818 529.5C815.308 530.937 812.629 532.376 809.938 533.812C782.635 548.388 755.333 562.987 728.031 577.562C719.956 581.874 711.857 586.158 703.781 590.469C701.474 591.701 699.182 592.956 696.875 594.188C696.49 594.393 696.103 594.576 695.719 594.781C695.334 594.987 694.856 595.084 694.562 595.406C694.32 595.672 694.468 595.491 694.344 595.625C691.699 596.27 689.68 598.564 689.688 601.406C690.223 600.633 689.914 601.077 690.219 600.625C690.148 601.059 690.074 601.494 690.094 601.938C689.977 602.238 689.79 602.507 689.688 602.812C689.537 603.265 689.718 603.773 689.719 604.25C689.721 605.204 689.716 606.171 689.719 607.125C689.726 609.986 689.711 612.827 689.719 615.688C689.739 623.793 689.761 631.894 689.781 640C689.814 652.874 689.874 665.751 689.906 678.625C689.915 681.963 689.898 685.319 689.906 688.656C689.911 690.704 689.698 693.195 690.531 695.125C690.944 696.081 691.563 696.936 692.344 697.625C693.23 698.407 694.398 698.941 695.438 699.5C696.601 700.126 697.774 700.749 698.938 701.375C703.593 703.879 708.251 706.371 712.906 708.875C733.468 719.935 754.032 731.003 774.594 742.062C792.828 751.87 811.052 761.684 829.281 771.5C830.833 772.335 832.386 773.165 833.938 774C835.101 774.627 836.243 775.28 837.406 775.906C840.691 777.675 844.169 780.292 848 777.969C848.741 777.52 849.297 776.937 849.812 776.25C851.563 773.915 851.101 769.842 851.094 767.094C851.092 766.442 851.096 765.808 851.094 765.156C851.074 757.989 851.051 750.824 851.031 743.656C850.952 714.986 850.861 686.295 850.781 657.625C850.687 623.742 850.602 589.883 850.5 556C850.475 547.529 850.464 539.065 850.438 530.594C850.433 529.291 850.41 527.959 850.406 526.656C850.398 524.176 850.645 521.52 849.062 519.406C848.54 518.708 847.968 518.148 847.219 517.688C846.477 517.232 845.676 516.92 844.844 516.781ZM837.781 533.312C837.783 533.718 837.78 534.126 837.781 534.531C837.807 540.396 837.818 546.261 837.844 552.125C837.923 570.37 838.015 588.63 838.094 606.875C838.254 644.016 838.425 681.141 838.594 718.281C838.65 730.661 838.694 743.057 838.75 755.438C838.761 757.867 838.77 760.29 838.781 762.719C837.933 762.264 837.098 761.798 836.25 761.344C829.262 757.597 822.269 753.841 815.281 750.094C789.27 736.146 763.254 722.179 737.25 708.219C728.711 703.635 720.164 699.053 711.625 694.469C708.908 693.01 706.217 691.552 703.5 690.094C703 689.825 702.5 689.55 702 689.281C701.993 689.064 702.001 688.835 702 688.625C701.996 687.195 702.004 685.743 702 684.312C701.988 680.021 701.98 675.729 701.969 671.438C701.93 657.133 701.883 642.836 701.844 628.531C701.828 622.81 701.797 617.097 701.781 611.375C701.776 609.582 701.786 607.793 701.781 606C702.53 605.6 703.283 605.212 704.031 604.812C707.491 602.963 710.946 601.099 714.406 599.25C729.015 591.443 743.641 583.651 758.25 575.844C777.857 565.365 797.455 554.885 817.062 544.406C823.598 540.913 830.121 537.399 836.656 533.906C837.03 533.707 837.408 533.512 837.781 533.312Z" fill="#5e5e5e" stroke="none"/>
</g>
</g>
<g id="Ebene-3" vectornator:layerName="Ebene 3">
<g fill="#303030" opacity="0.968922" stroke="none" vectornator:layerName="Text 2">
<path d="M311.876 650.818L308.791 633.91L305.706 650.818L295.146 701.959L278.178 701.959L253.379 614.509L272.779 614.509L284.348 664.582L286.84 678.525L289.391 664.879L299.239 614.509L318.521 614.509L328.903 664.582L331.573 678.525L334.243 665.116L345.931 614.509L364.5 614.509L339.879 701.959L322.437 701.959L311.876 650.818Z"/>
<path d="M374.111 614.509L392.266 614.509L392.266 701.959L374.111 701.959L374.111 614.509Z"/>
<path d="M438.957 648.564L454.027 652.183C460.632 653.765 465.615 655.881 468.977 658.531C474.198 662.644 476.809 668.597 476.809 676.389C476.809 684.378 473.753 691.013 467.642 696.293C461.532 701.574 452.899 704.214 441.746 704.214C430.355 704.214 421.396 701.613 414.87 696.412C408.344 691.211 405.081 684.062 405.081 674.965L422.523 674.965C423.077 678.96 424.165 681.946 425.786 683.923C428.753 687.523 433.835 689.322 441.034 689.322C445.345 689.322 448.845 688.848 451.535 687.898C456.637 686.079 459.188 682.697 459.188 677.753C459.188 674.866 457.922 672.631 455.391 671.049C452.86 669.507 448.885 668.142 443.466 666.956L434.211 664.879C425.114 662.822 418.825 660.588 415.345 658.175C409.451 654.141 406.505 647.832 406.505 639.249C406.505 631.418 409.352 624.912 415.048 619.73C420.743 614.549 429.109 611.958 440.144 611.958C449.359 611.958 457.22 614.401 463.727 619.285C470.233 624.17 473.644 631.26 473.961 640.554L456.4 640.554C456.083 635.294 453.789 631.556 449.518 629.341C446.67 627.878 443.13 627.146 438.898 627.146C434.191 627.146 430.434 628.096 427.626 629.994C424.817 631.893 423.413 634.543 423.413 637.944C423.413 641.069 424.798 643.402 427.566 644.945C429.346 645.973 433.143 647.179 438.957 648.564Z"/>
<path d="M557.673 622.044C566.493 630.073 570.903 642.097 570.903 658.116C570.903 673.818 566.493 685.842 557.673 694.187C551.068 700.99 541.516 704.392 529.017 704.392C516.519 704.392 506.967 700.99 500.362 694.187C491.502 685.842 487.072 673.818 487.072 658.116C487.072 642.097 491.502 630.073 500.362 622.044C506.967 615.241 516.519 611.84 529.017 611.84C541.516 611.84 551.068 615.241 557.673 622.044ZM529.017 627.324C521.779 627.324 516.005 629.994 511.694 635.334C507.382 640.673 505.227 648.267 505.227 658.116C505.227 667.964 507.382 675.558 511.694 680.898C516.005 686.237 521.779 688.907 529.017 688.907C536.255 688.907 542 686.237 546.252 680.898C550.504 675.558 552.63 667.964 552.63 658.116C552.63 648.307 550.504 640.723 546.252 635.363C542 630.004 536.255 627.324 529.017 627.324Z"/>
</g>
</g>
</svg>
